<?xml version="1.0" encoding="UTF-8" standalone="no"?>
<!DOCTYPE svg PUBLIC "-//W3C//DTD SVG 1.1//EN" "http://www.w3.org/Graphics/SVG/1.1/DTD/svg11.dtd">
<svg width="100%" height="100%" viewBox="0 0 650 750" version="1.1" xmlns="http://www.w3.org/2000/svg" xmlns:xlink="http://www.w3.org/1999/xlink" xml:space="preserve" xmlns:serif="http://www.serif.com/" style="fill-rule:evenodd;clip-rule:evenodd;stroke-linejoin:round;stroke-miterlimit:2;">
    <g transform="matrix(1,0,0,1,-175.24,-125)">
        <g transform="matrix(1.1024,0,0,1.1024,-163.029,-95.8395)">
            <path d="M601.444,200.327L896.038,370.411L896.038,710.579L601.444,880.663L306.849,710.579L306.849,370.411L601.444,200.327Z" style="fill:none;"/>
            <clipPath id="_clip1">
                <path d="M601.444,200.327L896.038,370.411L896.038,710.579L601.444,880.663L306.849,710.579L306.849,370.411L601.444,200.327Z"/>
            </clipPath>
            <g clip-path="url(#_clip1)">
                <path d="M601.444,200.327L896.038,370.411L896.038,710.579L601.444,880.663L306.849,710.579L306.849,370.411L601.444,200.327Z" style="fill:white;"/>
                <g transform="matrix(0.100651,0,0,-0.100651,199.02,1022.23)">
                    <g transform="matrix(9.9353,0,0,-9.9353,-1977.32,10156.1)">
                        <path d="M517.078,736.379C517.078,736.882 519.493,737.385 522.412,737.385C525.331,737.385 531.27,737.788 535.698,738.291C540.127,738.895 547.374,739.6 551.802,739.902C556.231,740.204 564.182,740.908 569.416,741.412C586.225,743.022 621.554,742.619 644.401,740.405C670.772,737.989 674.094,737.486 674.094,736.278C674.094,735.775 643.798,735.372 595.586,735.372C543.952,735.372 517.078,735.674 517.078,736.379Z"/>
                    </g>
                    <g transform="matrix(9.9353,0,0,-9.9353,-1977.32,10156.1)">
                        <path d="M806.45,476.296C792.661,489.18 786.722,490.79 771.725,485.657C762.465,482.537 761.559,482.335 742.033,481.933C704.088,481.128 680.535,485.355 672.081,494.414L669.866,496.628L673.792,499.144C682.448,504.781 701.672,507.901 727.942,507.901C745.858,507.901 746.361,507.8 761.962,503.875C774.543,500.654 779.576,499.849 786.722,499.849L795.68,499.849L800.914,504.579C803.732,507.096 808.866,512.833 812.187,517.161C815.509,521.589 818.427,525.011 818.629,524.71C818.83,524.508 817.22,520.18 815.005,515.248C811.08,506.391 810.174,502.868 811.784,502.868C812.187,502.868 815.106,505.485 818.327,508.605C821.447,511.726 824.265,514.041 824.567,513.839C825.372,512.933 811.885,495.823 810.375,495.823C808.161,495.823 808.664,494.414 814.099,486.261C816.918,482.033 819.031,478.309 818.729,478.108C818.528,477.806 817.723,478.309 817.018,479.215C815.509,481.128 812.992,481.228 812.992,479.316C812.992,478.611 813.495,476.598 814.099,474.887C816.314,468.345 814.603,468.647 806.45,476.296Z"/>
                    </g>
                    <g transform="matrix(9.9353,0,0,-9.9353,-1977.32,10156.1)">
                        <path d="M671.577,431.507C660.103,439.257 655.272,443.182 646.113,452.039C635.947,461.803 634.638,464.017 635.041,471.868C635.242,476.9 635.645,478.209 637.155,478.511C638.262,478.712 638.866,478.209 638.866,477.102C638.866,471.868 645.609,459.488 652.152,452.543C656.077,448.315 674.496,432.513 678.321,429.997C680.837,428.386 682.85,425.367 681.34,425.367C680.938,425.467 676.61,428.185 671.577,431.507Z"/>
                    </g>
                    <g transform="matrix(9.9353,0,0,-9.9353,-1977.32,10156.1)">
                        <path d="M698.753,381.584C680.133,385.71 650.441,400.607 638.463,411.88C631.417,418.523 629.807,421.844 629.807,429.393C629.807,437.042 630.612,438.25 636.148,439.156C641.281,439.961 647.723,437.445 671.074,425.769C695.432,413.49 698.652,412.081 711.838,407.753C733.78,400.506 757.03,396.782 775.248,397.386C786.521,397.788 787.829,398.09 794.875,401.412C799.002,403.324 806.853,407.853 812.288,411.477C817.622,415.1 822.051,417.617 822.051,417.013C822.051,412.987 810.174,399.801 800.411,393.158C792.963,388.025 780.583,382.288 774.342,381.181C765.485,379.571 706.503,379.872 698.753,381.584Z"/>
                    </g>
                    <g transform="matrix(9.9353,0,0,-9.9353,-1977.32,10156.1)">
                        <path d="M730.458,336.794C696.136,340.015 654.265,358.836 635.242,379.369C630.512,384.402 629.908,385.61 631.216,386.314C632.424,387.019 634.135,386.213 637.658,383.295C640.275,381.181 646.012,377.356 650.441,374.739C657.285,370.814 661.915,368.6 674.597,362.862C678.522,361.151 686.373,358.836 700.062,355.314C712.039,352.294 716.568,351.69 734.786,350.684C763.271,349.073 769.813,349.878 783.3,356.823C788.836,359.742 793.969,362.661 794.875,363.366C797.593,365.681 807.154,371.116 807.658,370.713C808.463,369.807 795.68,356.924 788.937,351.891C781.69,346.456 771.725,340.92 764.68,338.404C759.244,336.391 742.436,335.586 730.458,336.794Z"/>
                    </g>
                    <g transform="matrix(9.01247,0,0,-9.01247,-508.031,9292.4)">
                        <path d="M175.24,312.5L373.184,198.217L373.153,198.325C361.392,234.941 360.393,239.601 360.393,262.015C360.393,282.431 361.503,287.757 367.162,295.968C373.819,305.621 381.919,311.391 403.334,321.488C422.862,330.808 426.413,332.694 432.737,337.244C437.73,340.905 445.83,350.559 445.83,352.889C445.83,353.554 435.955,349.116 423.972,343.124C397.675,330.142 394.679,328.7 383.139,324.817C364.166,318.492 339.422,314.276 320.227,314.276C306.69,314.276 297.147,318.825 292.82,327.258L291.489,329.81L316.454,329.81C348.854,329.81 364.61,332.251 390.906,341.127C418.091,350.337 436.732,363.652 440.282,376.19C440.837,378.409 441.392,384.29 441.392,389.172C441.392,400.489 444.055,406.037 456.593,420.462C469.02,434.997 472.571,442.986 476.344,466.509C478.563,480.268 478.563,518.104 476.344,535.081C475.456,542.071 474.124,552.057 473.57,557.272C472.904,562.487 471.351,574.471 470.241,583.902C467.356,606.648 467.356,609.644 470.907,615.525C474.679,622.071 487.994,634.388 492.876,636.052C499.09,638.049 506.191,635.941 526.607,625.733C543.473,617.411 545.47,616.745 551.129,616.856C559.673,617.078 566.108,619.298 566.552,622.293C566.885,624.956 567.551,624.734 543.473,627.73C524.277,630.171 524.277,630.171 525.165,633.611C526.385,638.493 533.265,647.703 543.362,657.689C553.792,668.119 561.781,674 571.323,678.549C576.871,681.101 578.646,681.434 588.522,681.212C601.393,680.879 608.494,678.438 625.138,668.563C640.339,659.353 649.326,652.363 662.53,639.27C675.179,626.51 677.177,622.737 671.185,622.737C660.866,622.737 641.67,615.414 631.018,607.536C621.476,600.435 608.716,586.01 610.38,584.235C611.379,583.347 621.365,588.784 628.688,594.332C640.783,603.542 649.659,607.314 672.183,612.751C685.831,615.969 696.039,615.636 711.13,611.53C727.107,607.203 731.879,606.205 735.762,606.094C740.311,606.094 739.424,607.758 733.765,609.866C723.446,613.861 713.46,626.621 710.02,640.158C702.364,669.894 700.256,676.552 693.487,690.421C690.27,696.968 677.842,717.828 672.516,725.706C663.529,738.688 638.674,771.642 630.02,781.961C619.373,794.723 611.793,804.321 604.173,814.855L592.45,821.624C604.354,802.965 621.046,778.029 635.457,757.55C662.086,719.714 685.498,679.325 696.039,653.361C701.92,638.604 703.695,623.847 699.479,623.847C697.038,623.847 684.611,637.938 673.848,652.807C654.319,679.88 647.107,687.536 634.458,694.638C617.814,703.958 599.506,707.509 566.552,708.063C536.261,708.507 525.72,703.514 510.851,681.656C506.746,675.553 501.531,668.895 499.423,667.009L495.539,663.57L491.656,667.342C489.659,669.339 485.109,675.22 481.559,680.324C472.46,693.75 464.693,701.85 457.814,704.957C452.155,707.509 450.934,707.62 428.632,707.509C399.117,707.287 383.028,705.068 366.829,699.076C348.299,692.197 333.43,679.104 322.002,659.797C315.344,648.59 306.357,638.271 303.25,638.271C298.146,638.271 304.914,662.682 316.898,686.871C321.669,696.524 333.43,716.718 341.53,729.367C343.084,731.697 348.299,740.019 353.07,747.786C364.277,765.761 369.381,773.75 382.03,793.057L396.524,815.258L381.566,806.622L369.159,789.395C366.496,785.512 363.056,780.741 361.503,778.854C353.403,768.868 331.766,737.356 322.335,722.044C317.675,714.388 307.577,694.638 303.916,686.205C300.254,677.328 298.812,672.89 293.375,651.031C291.378,643.042 288.937,634.721 287.938,632.501C285.719,627.175 278.174,619.076 272.182,615.525C267.189,612.64 254.762,610.532 253.541,612.307C252.21,614.637 256.981,635.386 260.975,644.374C261.752,646.149 263.86,650.92 265.635,654.915C275.622,677.328 296.925,715.387 315.455,743.681C319.228,749.451 325.109,758.438 328.437,763.653C331.744,768.833 338.116,777.955 342.655,784.157L175.24,687.5L175.24,312.5ZM391.239,604.984L379.811,604.984C368.491,604.985 368.028,605.106 359.727,609.422C350.962,613.972 337.092,623.847 333.43,628.285C326.773,636.163 333.652,657.023 345.636,665.234C368.604,681.101 411.101,680.435 438.951,663.791C448.16,658.355 457.259,649.367 456.26,646.815C454.596,642.488 421.642,620.296 402.224,610.532L391.239,604.984ZM328.105,353C361.281,359.546 406.773,387.618 424.083,412.362C431.406,422.903 436.843,438.215 433.847,439.99C433.292,440.434 426.191,438.548 417.98,435.774C409.769,433.111 403.001,431.114 402.668,431.336C402.446,431.558 404.554,435.774 407.439,440.545C415.65,454.526 414.429,458.076 398.341,467.508C386.912,474.276 381.808,478.049 380.255,480.934C379.145,482.931 379.478,482.82 383.805,480.49C386.468,479.047 389.242,477.272 390.13,476.495C390.906,475.83 392.016,475.164 392.571,475.164C393.015,475.164 396.898,473.167 401.004,470.726C412.987,463.735 412.987,463.735 412.21,479.824C411.766,487.369 410.768,498.354 409.88,504.346C408.438,514.332 407.772,516.107 401.891,525.982C398.452,531.863 393.347,539.852 390.574,543.736C386.246,549.949 379.256,564.485 379.256,567.48C379.256,568.035 377.481,572.695 375.261,577.799C369.27,591.669 358.951,600.102 339.089,606.981C323.666,612.418 313.791,614.083 296.038,614.304C282.057,614.415 278.95,614.083 272.071,611.863C254.984,606.315 249.325,600.435 246.44,585.012C243.555,569.256 243.555,504.013 246.44,491.253C251.211,469.949 256.981,460.074 266.19,457.411C274.068,455.081 284.498,456.19 329.325,463.846C332.876,464.512 344.415,464.623 356.51,464.179L377.592,463.402L387.578,459.186C393.126,456.856 399.672,454.304 402.335,453.305C404.887,452.418 406.995,451.086 406.995,450.42C406.884,446.981 395.678,442.542 377.037,438.437C367.938,436.329 361.836,435.996 331.877,435.552L297.147,434.997L292.265,424.9C282.501,404.373 277.175,383.846 277.175,366.315C277.175,355.441 278.728,353.444 288.826,351.668C293.264,350.891 322.224,351.89 328.105,353Z"/>
                    </g>
                    <g transform="matrix(9.9353,0,0,-9.9353,-1977.32,10156.1)">
                        <path d="M576.473,866.246C576.516,855.059 578.145,846.383 582.501,833.91C586.628,822.033 586.628,815.088 582.501,806.332C577.468,795.663 567.101,785.698 558.747,783.584C554.721,782.578 553.614,781.672 554.721,780.565C555.728,779.659 645.609,780.162 645.207,781.169C645.005,781.672 642.087,784.188 638.765,786.705C630.713,792.744 625.076,798.883 622.56,804.52C620.849,808.445 620.648,810.559 621.05,819.819C621.453,828.676 622.057,831.796 624.674,838.54C626.385,842.969 628.499,851.021 629.404,856.557C629.859,859.631 630.155,861.906 630.233,864.042L601.444,880.663L576.473,866.246Z"/>
                    </g>
                </g>
            </g>
            <path d="M601.444,200.327L896.038,370.411L896.038,710.579L601.444,880.663L306.849,710.579L306.849,370.411L601.444,200.327ZM324.992,380.886L324.992,700.105L601.444,859.715L877.896,700.105L877.896,380.886L601.444,221.276L324.992,380.886Z"/>
        </g>
    </g>
</svg>
